<?xml version="1.0" encoding="UTF-8" standalone="no"?>
<!DOCTYPE svg PUBLIC "-//W3C//DTD SVG 1.1//EN" "http://www.w3.org/Graphics/SVG/1.1/DTD/svg11.dtd">
<svg width="100%" height="100%" viewBox="0 0 2834 452" version="1.1" xmlns="http://www.w3.org/2000/svg" xmlns:xlink="http://www.w3.org/1999/xlink" xml:space="preserve" xmlns:serif="http://www.serif.com/" style="fill-rule:evenodd;clip-rule:evenodd;stroke-linejoin:round;stroke-miterlimit:2;">
    <g transform="matrix(4.166667,0,0,4.166667,1464.73,441.315833)">
        <path d="M0,-45.793L-14.425,-45.793C-14.425,-35.696 -14.376,-6.33 -14.376,-0.013C-2.582,0 -3.22,0 1.617,0C7.127,-0.474 24.598,-3.912 24.776,-22.278C24.955,-40.632 9.501,-45.793 0,-45.793M-3.979,-9.937L-3.979,-36.244C1.717,-36.347 14.146,-35.471 13.858,-22.652C13.579,-9.855 2.001,-9.937 -3.979,-9.937" style="fill:white;fill-rule:nonzero;"/>
    </g>
    <g transform="matrix(4.166667,0,0,4.166667,951.794583,451.18125)">
        <path d="M0,-48.084L-10.781,-23.32L-21.572,-48.084L-33.139,-48.084L-10.781,0L11.577,-48.084L0,-48.084Z" style="fill:white;fill-rule:nonzero;"/>
    </g>
    <g transform="matrix(4.166667,0,0,4.166667,1059.252917,440.74625)">
        <path d="M0,-47.689L-0.026,-47.726L-0.026,-47.651L-23.639,0.037L-12.43,0.037L-9.521,-6.455L9.512,-6.455L12.421,0.037L23.626,0.037L0.018,-47.651L0.018,-47.726L0,-47.689ZM0,-27.75L6.503,-14.413L0.018,-14.425L-0.026,-14.425L-6.519,-14.413L0,-27.75Z" style="fill:white;fill-rule:nonzero;"/>
    </g>
    <g transform="matrix(4.166667,0,0,4.166667,1184.2975,449.7025)">
        <path d="M0,-49.82L-0.141,-49.95L0,-49.621L0,-2.238L9.718,-2.238L9.718,-27.108L39.041,0.13L39.041,-47.874L29.316,-47.874L29.316,-22.737L0.093,-49.727L0,-49.95L0,-49.82Z" style="fill:white;fill-rule:nonzero;"/>
    </g>
    <g transform="matrix(4.166667,0,0,4.166667,2670.6625,450.045)">
        <path d="M0,-49.803L-0.138,-49.94L0,-49.603L0,-2.233L9.716,-2.233L9.716,-27.096L39.045,0.137L39.045,-47.869L29.322,-47.869L29.322,-22.725L0.085,-49.722L0,-49.94L0,-49.803Z" style="fill:white;fill-rule:nonzero;"/>
    </g>
    <g transform="matrix(4.166667,0,0,4.166667,1614.099167,440.69375)">
        <path d="M0,-45.567L-0.142,0L27.854,0L27.991,-8.997L10.411,-8.997L10.411,-19.034L25.405,-19.034L25.405,-27.52L10.46,-27.52L10.46,-36.759L27.259,-36.759L27.259,-45.567L0,-45.567Z" style="fill:white;fill-rule:nonzero;"/>
    </g>
    <g transform="matrix(4.166667,0,0,4.166667,2140.934167,441.834167)">
        <path d="M0,-45.705L0,0L27.991,0L27.991,-9.135L10.405,-9.135L10.405,-19.163L25.405,-19.163L25.405,-27.656L10.457,-27.656L10.457,-36.895L27.254,-36.895L27.254,-45.705L0,-45.705Z" style="fill:white;fill-rule:nonzero;"/>
    </g>
    <g transform="matrix(4.166667,0,0,4.166667,2503.454583,441.260417)">
        <path d="M0,-45.703L0,0L27.998,0L27.998,-9.14L10.408,-9.14L10.408,-19.17L25.404,-19.17L25.404,-27.656L10.461,-27.656L10.461,-36.895L27.251,-36.895L27.251,-45.703L0,-45.703Z" style="fill:white;fill-rule:nonzero;"/>
    </g>
    <g transform="matrix(4.166667,0,0,4.166667,2413.562083,440.696667)">
        <path d="M0,-45.62L-14.847,-25.934L-14.847,-45.568L-25.217,-45.568L-25.267,0L-14.903,0L-14.903,-20.482L1.253,-0.051L14.35,-0.051L-3.932,-23.79L12.865,-45.62L0,-45.62Z" style="fill:white;fill-rule:nonzero;"/>
    </g>
    <g transform="matrix(4.166667,0,0,4.166667,2043.277917,287.995417)">
        <path d="M0,27.457C0,27.457 -1.932,29.068 -9.331,29.044L-9.356,16.732C-9.356,16.732 -0.726,16.166 1.502,19.575C1.502,19.575 4.598,24.311 0,27.457M-9.356,-1.249C-9.356,-1.249 -0.191,-2.119 1.264,2.668C1.264,2.668 2.796,7.308 -2.526,8.898C-2.526,8.898 -4.96,9.546 -9.356,9.241L-9.356,-1.249ZM3.746,12.243C11.449,9.65 11.101,2.271 11.101,2.271C11.138,-9.202 -4.518,-8.919 -4.518,-8.919L-18.785,-8.919L-18.748,36.659L-2.609,36.659C9.496,36.624 12.108,26.55 12.108,26.55C15.259,16.017 3.746,12.243 3.746,12.243" style="fill:white;fill-rule:nonzero;"/>
    </g>
    <g transform="matrix(4.166667,0,0,4.166667,1823.844583,348.4425)">
        <path d="M0,-2.457L-0.034,-15.259C-0.034,-15.259 10.932,-15.962 10.796,-8.892C10.796,-8.892 11.252,-2.457 0,-2.457M11.904,2.76C22.071,-1.978 20.286,-11.652 20.286,-11.652C18.459,-24.573 -0.034,-23.455 -0.034,-23.455L-10.532,-23.435L-10.532,22.116L-0.034,22.116L-0.034,3.574L13.393,22.116L25.698,22.116L11.904,2.76Z" style="fill:white;fill-rule:nonzero;"/>
    </g>
    <g transform="matrix(4.166667,0,0,4.166667,1970.2475,106.9125)">
        <path d="M0,-3.231C5.8,-3.231 9.776,1.568 9.776,7.35C9.776,13.188 5.8,17.927 0,17.927C-5.793,17.927 -9.77,13.188 -9.77,7.35C-9.77,1.568 -5.793,-3.231 0,-3.231M0,22.428C8.024,22.428 14.468,15.799 14.468,7.412C14.468,-0.988 8.073,-7.733 0,-7.733C-8.072,-7.733 -14.458,-0.988 -14.458,7.412C-14.458,15.799 -8.018,22.428 0,22.428M-46.005,21.637L-41.318,21.637L-41.318,17.689L-41.205,17.689C-38.985,20.787 -35.524,22.428 -31.731,22.428C-23.649,22.428 -18.552,15.314 -18.552,7.35C-18.552,-0.744 -23.587,-7.733 -31.781,-7.733C-35.524,-7.733 -38.985,-5.912 -41.205,-2.865L-41.318,-2.865L-41.318,-25.659L-46.005,-25.659L-46.005,21.637ZM-32.602,-3.231C-26.805,-3.231 -23.356,1.388 -23.356,7.108C-23.356,12.877 -26.51,17.927 -32.537,17.927C-38.396,17.927 -41.556,12.635 -41.556,7.039C-41.556,1.686 -38.04,-3.231 -32.602,-3.231M-54.438,-6.944L-59.111,-6.944L-59.111,-2.865L-59.237,-2.865C-61.512,-5.912 -64.919,-7.733 -68.662,-7.733C-76.905,-7.733 -81.892,-0.744 -81.892,7.412C-81.892,15.314 -76.794,22.428 -68.72,22.428C-64.857,22.428 -61.637,20.849 -59.237,17.689L-59.111,17.689L-59.111,21.637L-54.438,21.637L-54.438,-6.944ZM-68.126,-3.231C-62.341,-3.231 -58.889,1.388 -58.889,7.108C-58.889,12.877 -62.046,17.927 -68.077,17.927C-73.934,17.927 -77.092,12.635 -77.092,7.039C-77.092,1.686 -73.576,-3.231 -68.126,-3.231M-88.271,-25.659L-92.947,-25.659L-92.947,21.636L-88.271,21.636L-88.271,-25.659ZM-119.584,-25.659L-124.272,-25.659L-124.272,21.636L-119.584,21.636L-119.584,-25.659ZM-132.813,-6.944L-137.497,-6.944L-137.497,-2.865L-137.613,-2.865C-139.894,-5.912 -143.29,-7.733 -147.04,-7.733C-155.291,-7.733 -160.272,-0.744 -160.272,7.412C-160.272,15.314 -155.176,22.428 -147.102,22.428C-143.234,22.428 -140.013,20.849 -137.613,17.689L-137.497,17.689L-137.497,21.637L-132.813,21.637L-132.813,-6.944ZM-146.511,-3.231C-140.723,-3.231 -137.259,1.388 -137.259,7.108C-137.259,12.877 -140.425,17.927 -146.455,17.927C-152.306,17.927 -155.469,12.635 -155.469,7.039C-155.469,1.686 -151.954,-3.231 -146.511,-3.231M-167.059,-2.442L-162.144,-2.442L-162.144,-6.944L-167.059,-6.944L-167.059,-17.221L-171.741,-17.221L-171.741,-6.944L-174.606,-6.944L-174.606,-2.442L-171.741,-2.442L-171.741,21.637L-167.059,21.637L-167.059,-2.442ZM-198.201,-6.944L-202.883,-6.944L-202.883,21.637L-198.201,21.637L-198.201,8.079C-198.201,2.967 -197.788,-3.231 -191.352,-3.231C-185.909,-3.231 -185.562,0.902 -185.562,5.528L-185.562,21.637L-180.875,21.637L-180.875,4.67C-180.875,-2.02 -182.627,-7.733 -190.238,-7.733C-193.632,-7.733 -196.151,-6.217 -198.082,-3.475L-198.201,-3.475L-198.201,-6.944ZM-230.689,4.247C-230.098,0.113 -226.356,-3.231 -222.315,-3.231C-218.214,-3.231 -214.885,0.113 -214.238,4.247L-230.689,4.247ZM-209.319,8.376C-208.852,-0.137 -213.528,-7.733 -222.377,-7.733C-230.975,-7.733 -235.726,-0.744 -235.726,7.71C-235.726,15.924 -230.452,22.428 -222.258,22.428C-216.635,22.428 -212.187,19.505 -209.55,14.401L-213.528,12.032C-215.346,15.437 -217.929,17.927 -221.909,17.927C-227.233,17.927 -230.864,13.668 -230.926,8.376L-209.319,8.376ZM-268.03,16.899L-268.03,-19.472L-264.462,-19.472C-259.253,-19.472 -254.8,-18.745 -250.764,-15.032C-246.954,-11.571 -245.024,-6.52 -245.024,-1.285C-245.024,3.819 -246.905,8.625 -250.529,12.156C-254.562,16.111 -259.078,16.899 -264.462,16.899L-268.03,16.899ZM-272.955,21.637L-264.755,21.637C-257.848,21.637 -252.579,20.723 -247.308,15.861C-242.452,11.36 -240.105,5.46 -240.105,-1.23C-240.105,-8.034 -242.39,-14.182 -247.426,-18.683C-252.636,-23.302 -258.021,-24.209 -264.636,-24.209L-272.955,-24.209L-272.955,21.637Z" style="fill:white;fill-rule:nonzero;"/>
    </g>
    <g transform="matrix(4.166667,0,0,4.166667,378.208333,398.651667)">
        <path d="M0,-21.515C1.493,-25.992 3.562,-31.258 4.383,-34.123L-9.221,-34.123C-10.621,-31.026 -13.886,-23.304 -15.861,-19.22C-18.185,-14.388 -18.76,-13.221 -21.812,-7.612C-24.877,-2.017 -28.732,6.484 -34.247,6.359C-39.793,6.242 -49.261,-2.818 -53.608,-7.612C-57.955,-12.418 -61.043,-17.024 -63.184,-21.433C-65.215,-25.618 -66.608,-30.903 -66.379,-34.123L-90.77,-34.123C-90.645,-31.636 -90.047,-27.303 -88.618,-23.404C-86.679,-18.126 -82.792,-10.255 -77.625,-4.279C-73.262,0.806 -64.096,10.86 -53.422,12.608L-12.367,12.608C-10.446,7.341 -7.786,0.265 -6.193,-4.435C-4.59,-9.186 -1.562,-16.807 0,-21.515" style="fill:white;fill-rule:nonzero;"/>
    </g>
    <g transform="matrix(4.166667,0,0,4.166667,740.4075,451.184167)">
        <path d="M0,-108.284C0.968,-106.277 1.04,-105.866 1.923,-104.093C-0.974,-102.719 -15.218,-95.12 -22.783,-90.159C-30.989,-84.757 -40.367,-76.693 -45.39,-71.066C-50.873,-64.936 -59.442,-51.991 -58.992,-34.651C-58.671,-22.153 -54.083,-15.071 -49.98,-11.609C-45.881,-8.139 -42.173,-5.689 -37.581,-5.888C-31.797,-6.124 -27.938,-8.151 -24.389,-12.733C-20.204,-18.124 -11.506,-38.189 -7.969,-46.736L5.644,-46.736C3.629,-40.776 5.644,-46.805 -10.938,-0.008C-52.194,0 -43.504,0 -52.194,0C-60.648,-0.529 -71.874,-2.742 -78.467,-13.219C-85.479,-24.341 -82.82,-40.607 -78.467,-48.423C-73.119,-58.057 -65.994,-68.398 -42.581,-83.786C-27.396,-93.765 -6.592,-104.653 0,-108.284" style="fill:white;fill-rule:nonzero;"/>
    </g>
</svg>
